<svg id="images-logo" xmlns="http://www.w3.org/2000/svg" width="350" height="50" viewBox="0 0 350 50"><g fill="none" fill-rule="nonzero"><path fill="#F9E344" d="M.092 34.539h349.724v14H.092z"/><g fill="#2D2926"><path d="M38.316 46.882L36.842 49c-5.342.092-10.684-1.474-15.658-8.566l-6.17-8.658c-.093 0-.37.092-.553.092l-1.658.277v11.144c0 2.395 1.105 3.132 4.697 3.408v1.935a277.152 277.152 0 00-17.5 0v-1.935c3.684-.276 4.79-1.013 4.79-3.408v-31.5c0-1.934-1.014-3.039-4.514-3.315V6.539c6.171.277 12.619 0 16.487 0 14.276 0 17.96 5.25 17.96 11.145 0 5.71-3.591 9.948-12.71 12.527l5.71 7.92c3.777 5.343 7.553 8.474 10.593 8.75zm-25.513-17.04l1.658-.184c9.486-1.197 12.526-5.71 12.526-11.513 0-5.434-2.671-9.395-8.934-9.395h-5.158v21.092h-.092z"/><path d="M50.75 49.276c-8.842 0-16.21-6.263-16.21-17.5 0-11.42 7.46-17.592 15.473-17.592 7.645 0 13.54 5.434 13.54 13.632 0 2.947-.921 4.42-3.5 4.42h-17.5c0 8.475 3.131 14.922 9.763 14.922 3.04 0 6.263-1.382 8.105-5.158h2.21c-2.026 4.697-6.078 7.276-11.881 7.276zm-.737-33.065c-4.697 0-7.368 5.157-7.368 13.723h13.723c0-8.473-1.657-13.723-6.355-13.723zm46.605 30.302v1.934c-4.144.185-7.092.092-10.04.83-.828-.277-1.289-.83-1.565-1.474l.369-4.882h-.369c-1.105 1.934-4.697 6.355-10.96 6.355-4.421 0-9.395-2.21-9.395-8.565 0-5.803 4.329-9.672 20.263-13.172v-3.131c0-5.987-.645-8.382-4.79-8.382-8.657 0-3.407 10.224-9.855 10.224-2.394 0-3.5-1.382-3.5-3.408 0-4.881 6.448-8.934 15.658-8.934 6.908 0 10.132 2.303 10.132 10.5v17.04c0 3.315 1.473 4.973 4.052 5.065zm-11.697-6.631v-10.5c-11.237 2.67-12.434 7.92-12.434 10.684 0 3.684 2.118 5.802 4.881 5.802 3.869.093 6.816-4.236 7.553-5.986zm27.539 6.723v1.934a151.484 151.484 0 00-15.842 0v-1.934c2.21-.276 4.053-.829 4.053-2.487V13.171c0-2.487-1.382-3.132-3.868-2.763V8.474c3.776-.645 7.368-1.935 10.5-3.869.644.277 1.197.83 1.565 1.566-.368 2.303-.368 4.882-.368 9.026v28.921c-.092 1.658 1.658 2.21 3.96 2.487zm44.211-9.763c0 7.184-6.263 11.697-18.329 11.697h-19.526v-1.934c3.684-.276 4.79-1.013 4.79-3.408v-31.04c0-2.21-1.014-3.407-4.514-3.683V6.539c6.171.277 11.697 0 15.566 0 14 0 17.408 5.158 17.408 9.948 0 3.776-2.027 6.631-7.921 8.842 8.197 1.382 12.526 5.526 12.526 11.513zm-25.145-10.776c9.856-1.474 12.71-3.96 12.71-9.303 0-4.79-2.394-8.013-8.565-8.013-2.118 0-3.132 0-4.145.092v17.224zm16.948 11.052c0-5.802-3.408-9.947-9.856-9.947l-7.092 1.105v14.83c0 2.394.553 3.13 3.777 3.13h2.763c7.092 0 10.408-3.315 10.408-9.118zm43.381 8.842v1.935c-4.144.184-7.092.644-10.131 1.381-.737-.276-1.198-.829-1.474-1.473l.921-6.816h-.46c-1.198 2.67-4.882 8.474-11.882 8.474-4.605 0-9.579-2.487-9.579-11.882V19.25c0-1.658-.553-2.21-1.934-2.303l-2.027-.092v-1.934l9.856-.645c.92-.092 1.658.369 1.658 1.474v21.276c0 5.158 1.197 8.658 4.881 8.658 4.513 0 7.645-5.434 8.474-7.645V19.25c0-1.658-.553-2.21-1.934-2.303l-2.027-.092v-1.934l9.764-.645c1.105-.092 1.75.369 1.75 1.474v25.79c0 3.223 1.473 4.328 4.144 4.42zm14.829 3.316c-4.145 0-6.908-2.394-8.934-2.394-.921 0-1.382.644-1.566 1.565h-2.118l-.737-9.21h1.934c1.382 4.79 7 7.92 10.776 7.92 3.132 0 4.974-1.933 4.974-4.88 0-3.685-3.131-5.343-7.737-7.738-4.79-2.394-9.947-5.342-9.947-11.144 0-5.25 4.421-9.21 10.408-9.21 4.237 0 5.802 1.933 7.552 1.933.922 0 1.474-.46 1.75-1.381h1.935l.644 8.842h-1.934c-2.026-5.066-5.987-7.368-9.302-7.368-3.04 0-4.882 1.934-4.882 4.697 0 3.131 2.395 4.79 6.171 6.724 4.237 2.118 11.882 5.065 11.882 11.79 0 5.802-5.342 9.854-10.869 9.854zm27.079-2.671v1.934a151.484 151.484 0 00-15.842 0v-1.934c2.21-.276 4.053-.829 4.053-2.487V22.474c0-2.58-1.382-3.132-3.869-2.856v-1.934c3.777-.645 7.369-1.934 10.5-3.868.645.276 1.198.829 1.566 1.566-.368 2.302-.368 4.881-.368 9.118v19.526c-.185 1.75 1.658 2.303 3.96 2.58zm-12.25-42c0-2.21 1.842-4.052 4.053-4.052 2.21 0 4.052 1.842 4.052 4.052 0 2.21-1.842 4.053-4.052 4.053-2.21 0-4.053-1.842-4.053-4.053z"/><path d="M270.145 46.605v1.934c-5.25-.184-10.5-.184-15.842 0v-1.934c2.394-.184 4.144-.829 4.144-2.487v-18.42c0-4.882-1.658-8.106-5.434-8.106-4.42 0-7.184 4.421-7.92 7v19.526c0 1.658 1.841 2.303 4.144 2.487v1.934c-5.25-.184-10.5-.184-15.75 0v-1.934c2.21-.276 4.052-.829 4.052-2.487V22.474c0-2.58-1.473-3.132-4.144-2.856v-1.934c4.144-.737 7.368-1.934 10.223-3.868.737.276 1.198.829 1.566 1.566l-1.105 6.447h.368c1.106-2.303 4.79-8.013 11.974-8.013 4.697 0 9.579 2.395 9.579 11.697v18.513c.092 1.75 1.842 2.303 4.145 2.58z"/><path d="M284.697 49.276c-8.842 0-16.21-6.263-16.21-17.5 0-11.42 7.46-17.592 15.474-17.592 7.644 0 13.539 5.434 13.539 13.632 0 2.947-.921 4.42-3.5 4.42h-17.5c0 8.475 3.132 14.922 9.763 14.922 3.04 0 6.263-1.382 8.105-5.158h2.21c-2.025 4.697-6.078 7.276-11.88 7.276zm-.736-33.065c-4.698 0-7.369 5.157-7.369 13.723h13.724c0-8.473-1.658-13.723-6.355-13.723zm28.921 33.065c-4.145 0-6.908-2.394-8.935-2.394-.92 0-1.381.644-1.565 1.565h-2.119l-.737-9.21h1.935c1.381 4.79 7 7.92 10.776 7.92 3.131 0 4.974-1.933 4.974-4.88 0-3.685-3.132-5.343-7.737-7.738-4.79-2.394-9.948-5.342-9.948-11.144 0-5.25 4.421-9.21 10.408-9.21 4.237 0 5.803 1.933 7.553 1.933.92 0 1.474-.46 1.75-1.381h1.934l.645 8.842h-1.75c-2.027-5.066-5.987-7.368-9.303-7.368-3.04 0-4.881 1.934-4.881 4.697 0 3.131 2.394 4.79 6.17 6.724 4.237 2.118 11.882 5.065 11.882 11.79-.184 5.802-5.526 9.854-11.052 9.854zm26.065 0c-4.144 0-6.908-2.394-8.934-2.394-.92 0-1.381.644-1.566 1.565h-2.118l-.737-9.21h1.934c1.382 4.79 7 7.92 10.777 7.92 3.131 0 4.973-1.933 4.973-4.88 0-3.685-3.131-5.343-7.737-7.738-4.789-2.394-9.947-5.342-9.947-11.144 0-5.25 4.421-9.21 10.408-9.21 4.237 0 5.803 1.933 7.553 1.933.92 0 1.473-.46 1.75-1.381h1.934l.645 8.842h-1.75c-2.027-5.066-5.987-7.368-9.303-7.368-3.04 0-4.882 1.934-4.882 4.697 0 3.131 2.395 4.79 6.171 6.724C342.355 29.75 350 32.697 350 39.422c-.184 5.802-5.526 9.854-11.053 9.854z"/></g></g></svg>